<?xml version="1.0" encoding="UTF-8" standalone="no"?>
<!-- Created with Inkscape (http://www.inkscape.org/) -->

<svg
   xmlns:dc="http://purl.org/dc/elements/1.1/"
   xmlns:cc="http://creativecommons.org/ns#"
   xmlns:rdf="http://www.w3.org/1999/02/22-rdf-syntax-ns#"
   xmlns:svg="http://www.w3.org/2000/svg"
   xmlns="http://www.w3.org/2000/svg"
   xmlns:sodipodi="http://sodipodi.sourceforge.net/DTD/sodipodi-0.dtd"
   xmlns:inkscape="http://www.inkscape.org/namespaces/inkscape"
   width="64"
   height="64"
   viewBox="0 0 64.000001 64.000001"
   id="svg2"
   version="1.1"
   inkscape:version="0.91 r13725"
   sodipodi:docname="left.svg">
  <defs
     id="defs4" />
  <sodipodi:namedview
     id="base"
     pagecolor="#747474"
     bordercolor="#000000"
     borderopacity="1"
     inkscape:pageopacity="0"
     inkscape:pageshadow="2"
     inkscape:zoom="2.8284271"
     inkscape:cx="-18.341763"
     inkscape:cy="14.239229"
     inkscape:document-units="px"
     inkscape:current-layer="layer1"
     showgrid="true"
     units="px"
     inkscape:snap-grids="false"
     showguides="true"
     inkscape:window-width="1600"
     inkscape:window-height="837"
     inkscape:window-x="1592"
     inkscape:window-y="-8"
     inkscape:window-maximized="1">
    <inkscape:grid
       type="xygrid"
       id="grid4136"
       empspacing="4"
       spacingx="0.50000001"
       spacingy="0.50000001"
       color="#ffffff"
       opacity="0.1254902"
       empcolor="#ffffff"
       empopacity="0.25098039"
       dotted="false" />
  </sodipodi:namedview>
  <metadata
     id="metadata7">
    <rdf:RDF>
      <cc:Work
         rdf:about="">
        <dc:format>image/svg+xml</dc:format>
        <dc:type
           rdf:resource="http://purl.org/dc/dcmitype/StillImage" />
        <dc:title />
      </cc:Work>
    </rdf:RDF>
  </metadata>
  <g
     inkscape:label="Layer 1"
     inkscape:groupmode="layer"
     id="layer1"
     transform="translate(0,-988.36216)">
    <g
       id="g4704"
       transform="matrix(0.76997986,0,0,0.76997986,63.487998,238.76413)">
      <path
         sodipodi:nodetypes="ccsccccsccc"
         inkscape:connector-curvature="0"
         id="path4160-7"
         d="m -11.469661,1050.9886 0,-22.5339 c 0,0 -0.302679,-10.0413 -5.145515,-14.582 -4.842838,-4.5406 -15.400908,-4.6825 -15.400908,-4.6825 l -23.369813,0 0,9.6321 23.369813,0 c 0,0 5.127698,0.1413 7.549115,2.4124 2.443801,2.2912 2.724098,7.3091 2.724098,7.3091 l 0,22.4448 z"
         style="fill:#000000;fill-opacity:1;fill-rule:evenodd;stroke:none;stroke-width:1px;stroke-linecap:butt;stroke-linejoin:miter;stroke-opacity:1" />
      <path
         inkscape:connector-curvature="0"
         id="path4162-6"
         d="m -38.916803,1000.3491 -27.395283,13.8708 27.395283,13.8708 -3.424402,-13.8708 z"
         style="fill:#000000;fill-opacity:1;fill-rule:evenodd;stroke:none;stroke-width:1px;stroke-linecap:butt;stroke-linejoin:miter;stroke-opacity:1" />
    </g>
    <g
       id="g4708"
       transform="matrix(0.78548336,0,0,0.78548336,4.6573429,224.40184)">
      <path
         sodipodi:nodetypes="ccsccccsccc"
         inkscape:connector-curvature="0"
         id="path4160"
         d="m 60.225416,1045.234 0,-22.5339 c 0,0 -0.302679,-10.0413 -5.145515,-14.582 -4.842838,-4.5407 -15.400908,-4.6826 -15.400908,-4.6826 l -23.369813,0 0,9.6322 23.369813,0 c 0,0 5.127698,0.1413 7.549115,2.4124 2.443801,2.2912 2.724098,7.3091 2.724098,7.3091 l 0,22.4448 z"
         style="fill:#ffffff;fill-opacity:1;fill-rule:evenodd;stroke:none;stroke-width:1px;stroke-linecap:butt;stroke-linejoin:miter;stroke-opacity:1" />
      <path
         inkscape:connector-curvature="0"
         id="path4162"
         d="m 32.778274,994.59442 -27.3952833,13.87088 27.3952833,13.8708 -3.424402,-13.8708 z"
         style="fill:#ffffff;fill-opacity:1;fill-rule:evenodd;stroke:none;stroke-width:1px;stroke-linecap:butt;stroke-linejoin:miter;stroke-opacity:1" />
    </g>
  </g>
</svg>
